<svg width="420" height="140" viewBox="0 0 420 140" fill="none" xmlns="http://www.w3.org/2000/svg">
  <rect width="420" height="140" rx="28" fill="black"/>
  <path d="M62 36H90V104H62V36Z" fill="white"/>
  <path d="M111 36H184V56H139V64H178V83H139V104H111V36Z" fill="white"/>
  <path d="M205 36H233V83C233 91.5 237.7 95 245.5 95C253.8 95 258 90.8 258 82.8V36H286V84.2C286 109.5 270.5 118 244.8 118C219.3 118 205 108.6 205 84.5V36Z" fill="white"/>
  <path d="M324.5 35C347 35 364.5 49.8 369.5 70.6H339.8C336.1 62.6 328.7 58.3 319.8 58.3C305.9 58.3 296.7 68.1 296.7 84.2C296.7 100.4 305.9 110.2 319.8 110.2C329.3 110.2 336.8 105.4 340.2 96.6H369.9C364.6 118.3 347.1 133.5 324.5 133.5C292.8 133.5 268.5 112 268.5 84.2C268.5 56.5 292.8 35 324.5 35Z" fill="white"/>
  <path d="M347 24L392 116" stroke="white" stroke-width="16" stroke-linecap="round"/>
  <path d="M21 121H401" stroke="white" stroke-opacity="0.22" stroke-width="2"/>
  <text x="211" y="132" fill="white" fill-opacity="0.72" font-family="Arial, Helvetica, sans-serif" font-size="16" font-weight="700" text-anchor="middle" letter-spacing="5.5">CANELEIRAS</text>
</svg>
